<svg xmlns="http://www.w3.org/2000/svg" viewBox="0 0 320 320" width="320" height="320" preserveAspectRatio="xMidYMid meet" style="width: 100%; height: 100%; transform: translate3d(0px, 0px, 0px);"><defs><clipPath id="__lottie_element_13"><rect width="320" height="320" x="0" y="0"></rect></clipPath></defs><g clip-path="url(#__lottie_element_13)"><g transform="matrix(6.905300140380859,0,0,6.905300140380859,156.54734802246094,309.2793273925781)" opacity="1" style="display: block;"><g opacity="1" transform="matrix(1,0,0,2.3549299240112305,0.5,-13.79800033569336)"><path fill="rgb(255,255,255)" fill-opacity="1" d=" M21.72249984741211,-1.2020000219345093 C21.72249984741211,-1.2020000219345093 21.72249984741211,1.2020000219345093 21.72249984741211,1.2020000219345093 C21.72249984741211,1.2020000219345093 -21.72249984741211,1.2020000219345093 -21.72249984741211,1.2020000219345093 C-21.72249984741211,1.2020000219345093 -21.72249984741211,-1.2020000219345093 -21.72249984741211,-1.2020000219345093 C-21.72249984741211,-1.2020000219345093 21.72249984741211,-1.2020000219345093 21.72249984741211,-1.2020000219345093z"></path></g></g><g transform="matrix(6.905300140380859,0,0,6.905300140380859,156.54734802246094,196.77932739257812)" opacity="1" style="display: block;"><g opacity="1" transform="matrix(1,0,0,2.3549299240112305,0.5,-13.79800033569336)"><path fill="rgb(255,255,255)" fill-opacity="1" d=" M21.72249984741211,-1.2020000219345093 C21.72249984741211,-1.2020000219345093 21.72249984741211,1.2020000219345093 21.72249984741211,1.2020000219345093 C21.72249984741211,1.2020000219345093 -21.72249984741211,1.2020000219345093 -21.72249984741211,1.2020000219345093 C-21.72249984741211,1.2020000219345093 -21.72249984741211,-1.2020000219345093 -21.72249984741211,-1.2020000219345093 C-21.72249984741211,-1.2020000219345093 21.72249984741211,-1.2020000219345093 21.72249984741211,-1.2020000219345093z"></path></g></g></g></svg>