<svg xmlns="http://www.w3.org/2000/svg" viewBox="0 0 500 70" width="500" height="70" preserveAspectRatio="xMidYMid meet" style="width: 100%; height: 100%; transform: translate3d(0px, 0px, 0px);"><defs><clipPath id="__lottie_element_3"><rect width="500" height="70" x="0" y="0"></rect></clipPath><clipPath id="__lottie_element_11"><path fill="#ffffff" clip-rule="nonzero" d=" M-947.6820068359375,-13.484999656677246 C-947.6820068359375,-13.484999656677246 -947.6820068359375,276.8370056152344 -947.6820068359375,276.8370056152344 C-947.6820068359375,276.8370056152344 1243.0989990234375,276.8370056152344 1243.0989990234375,276.8370056152344 C1243.0989990234375,276.8370056152344 1243.0989990234375,-13.484999656677246 1243.0989990234375,-13.484999656677246 C1243.0989990234375,-13.484999656677246 -947.6820068359375,-13.484999656677246 -947.6820068359375,-13.484999656677246" fill-opacity="1"></path></clipPath></defs><g clip-path="url(#__lottie_element_3)"><g clip-path="url(#__lottie_element_11)" transform="matrix(0.3430500030517578,0,0,0.3430500030517578,54.843170166015625,-16.457500457763672)" opacity="1" style="display: block;"><g opacity="1" transform="matrix(1,0,0,1,475.3349914550781,148.177001953125)"><path fill="rgb(255,255,255)" fill-opacity="1" d=" M-20.746999740600586,-87.177001953125 C-20.746999740600586,-87.177001953125 20.746000289916992,-87.177001953125 20.746000289916992,-87.177001953125 C20.746000289916992,-87.177001953125 20.746000289916992,87.177001953125 20.746000289916992,87.177001953125 C20.746000289916992,87.177001953125 -20.746999740600586,87.177001953125 -20.746999740600586,87.177001953125 C-20.746999740600586,87.177001953125 -20.746999740600586,-87.177001953125 -20.746999740600586,-87.177001953125z"></path></g><g opacity="1" transform="matrix(1,0,0,1,557.1649780273438,148.177001953125)"><path fill="rgb(255,255,255)" fill-opacity="1" d=" M-24.05299949645996,-12.687000274658203 C-24.05299949645996,-12.687000274658203 -44.08599853515625,-12.687000274658203 -44.08599853515625,-12.687000274658203 C-44.08599853515625,-12.687000274658203 -44.08599853515625,-39.54399871826172 -44.08599853515625,-39.54399871826172 C-44.08599853515625,-39.54399871826172 -24.05299949645996,-39.54399871826172 -24.05299949645996,-39.54399871826172 C-24.05299949645996,-75.9469985961914 -11.345000267028809,-87.177001953125 24.086000442504883,-87.177001953125 C30.649999618530273,-87.177001953125 37.492000579833984,-86.69300079345703 44.08599853515625,-86.4469985961914 C44.08599853515625,-86.4469985961914 44.08599853515625,-57.141998291015625 44.08599853515625,-57.141998291015625 C40.198001861572266,-57.645999908447266 36.54999923706055,-57.875 32.869998931884766,-57.875 C23.351999282836914,-57.875 17.48699951171875,-56.65599822998047 17.48699951171875,-45.18199920654297 C17.48699951171875,-45.18199920654297 17.48699951171875,-39.54399871826172 17.48699951171875,-39.54399871826172 C17.48699951171875,-39.54399871826172 42.3849983215332,-39.54399871826172 42.3849983215332,-39.54399871826172 C42.3849983215332,-39.54399871826172 42.3849983215332,-12.687000274658203 42.3849983215332,-12.687000274658203 C42.3849983215332,-12.687000274658203 17.48699951171875,-12.687000274658203 17.48699951171875,-12.687000274658203 C17.48699951171875,-12.687000274658203 17.48699951171875,87.177001953125 17.48699951171875,87.177001953125 C17.48699951171875,87.177001953125 -24.05299949645996,87.177001953125 -24.05299949645996,87.177001953125 C-24.05299949645996,87.177001953125 -24.05299949645996,-12.687000274658203 -24.05299949645996,-12.687000274658203z"></path></g><g opacity="1" transform="matrix(1,0,0,1,737.6599731445312,171.9770050048828)"><path fill="rgb(255,255,255)" fill-opacity="1" d=" M-21.836000442504883,21.607999801635742 C-21.836000442504883,27.961000442504883 -19.16699981689453,32.58100128173828 -14.99899959564209,35.78099822998047 C-11.111000061035156,38.7239990234375 -5.485000133514404,40.18600082397461 0.38100001215934753,40.18600082397461 C8.434000015258789,40.18600082397461 19.895999908447266,36.75 19.895999908447266,26.746000289916992 C19.895999908447266,16.9950008392334 6.949999809265137,15.012999534606934 -0.34599998593330383,13.281000137329102 C-26.490999221801758,6.723999977111816 -59.198001861572266,5.992000102996826 -59.198001861572266,-28.204999923706055 C-59.198001861572266,-58.724998474121094 -26.25200080871582,-67.02300262451172 -1.3229999542236328,-67.02300262451172 C26.4950008392334,-67.02300262451172 55.55400085449219,-58.95199966430664 57.007999420166016,-26.014999389648438 C57.007999420166016,-26.014999389648438 18.680999755859375,-26.014999389648438 18.680999755859375,-26.014999389648438 C18.680999755859375,-31.365999221801758 16.73699951171875,-34.78499984741211 13.29800033569336,-36.987998962402344 C9.895000457763672,-39.19200134277344 5.244999885559082,-40.165000915527344 0.10499999672174454,-40.165000915527344 C-6.699999809265137,-40.165000915527344 -17.707000732421875,-39.433998107910156 -17.707000732421875,-30.63800048828125 C-17.707000732421875,-18.690000534057617 10.138999938964844,-16.468000411987305 29.197999954223633,-12.338000297546387 C54.82500076293945,-7.197999954223633 61.417999267578125,11.366999626159668 61.417999267578125,21.85300064086914 C61.417999267578125,55.810001373291016 29.19700050354004,67.02300262451172 0.6230000257492065,67.02300262451172 C-29.408000946044922,67.02300262451172 -60.16999816894531,57.020999908447266 -61.41899871826172,21.607999801635742 C-61.41899871826172,21.607999801635742 -21.836000442504883,21.607999801635742 -21.836000442504883,21.607999801635742z"></path></g><g opacity="1" transform="matrix(1,0,0,1,877.1430053710938,148.177001953125)"><path fill="rgb(255,255,255)" fill-opacity="1" d=" M-63.12300109863281,-87.177001953125 C-63.12300109863281,-87.177001953125 -21.599000930786133,-87.177001953125 -21.599000930786133,-87.177001953125 C-21.599000930786133,-87.177001953125 -21.599000930786133,-22.23200035095215 -21.599000930786133,-22.23200035095215 C-21.599000930786133,-22.23200035095215 -21.108999252319336,-22.23200035095215 -21.108999252319336,-22.23200035095215 C-14.758000373840332,-35.152000427246094 2.3259999752044678,-43.222999572753906 17.46299934387207,-43.222999572753906 C59.71799850463867,-43.222999572753906 63.12300109863281,-12.461000442504883 63.12300109863281,5.869999885559082 C63.12300109863281,5.869999885559082 63.12300109863281,87.177001953125 63.12300109863281,87.177001953125 C63.12300109863281,87.177001953125 21.6299991607666,87.177001953125 21.6299991607666,87.177001953125 C21.6299991607666,87.177001953125 21.6299991607666,25.885000228881836 21.6299991607666,25.885000228881836 C21.6299991607666,8.543000221252441 23.57699966430664,-9.055000305175781 0.8669999837875366,-9.055000305175781 C-14.758999824523926,-9.055000305175781 -21.599000930786133,4.1539998054504395 -21.599000930786133,18.059999465942383 C-21.599000930786133,18.059999465942383 -21.599000930786133,87.177001953125 -21.599000930786133,87.177001953125 C-21.599000930786133,87.177001953125 -63.12300109863281,87.177001953125 -63.12300109863281,87.177001953125 C-63.12300109863281,87.177001953125 -63.12300109863281,-87.177001953125 -63.12300109863281,-87.177001953125z"></path></g><g opacity="1" transform="matrix(1,0,0,1,1022.9840087890625,171.9770050048828)"><path fill="rgb(255,255,255)" fill-opacity="1" d=" M-26.735000610351562,10.152000427246094 C-26.006000518798828,27.479999542236328 -15.973999977111816,38.970001220703125 1.6260000467300415,38.970001220703125 C11.593999862670898,38.970001220703125 21.381999969482422,34.2869987487793 25.277000427246094,25.04400062561035 C25.277000427246094,25.04400062561035 64.12699890136719,25.04400062561035 64.12699890136719,25.04400062561035 C56.55799865722656,54.349998474121094 29.440000534057617,67.02300262451172 1.1100000143051147,67.02300262451172 C-40.13800048828125,67.02300262451172 -68.25900268554688,42.130001068115234 -68.25900268554688,-0.3619999885559082 C-68.25900268554688,-39.19200134277344 -37.2239990234375,-67.02300262451172 0.13600000739097595,-67.02300262451172 C45.54999923706055,-67.02300262451172 68.25900268554688,-32.85499954223633 66.31400299072266,10.152000427246094 C66.31400299072266,10.152000427246094 -26.735000610351562,10.152000427246094 -26.735000610351562,10.152000427246094z M24.79199981689453,-13.0649995803833 C24.062999725341797,-27.231000900268555 14.062000274658203,-38.9370002746582 0.13600000739097595,-38.9370002746582 C-14.515000343322754,-38.9370002746582 -24.270999908447266,-28.43400001525879 -26.735000610351562,-13.0649995803833 C-26.735000610351562,-13.0649995803833 24.79199981689453,-13.0649995803833 24.79199981689453,-13.0649995803833z"></path></g><g opacity="1" transform="matrix(1,0,0,1,1150.583984375,170.77000427246094)"><path fill="rgb(255,255,255)" fill-opacity="1" d=" M-44.334999084472656,-62.137001037597656 C-44.334999084472656,-62.137001037597656 -4.0289998054504395,-62.137001037597656 -4.0289998054504395,-62.137001037597656 C-4.0289998054504395,-62.137001037597656 -4.0289998054504395,-39.94599914550781 -4.0289998054504395,-39.94599914550781 C-4.0289998054504395,-39.94599914550781 -3.5420000553131104,-39.94599914550781 -3.5420000553131104,-39.94599914550781 C2.565999984741211,-56.027000427246094 16.733999252319336,-64.58399963378906 34.547000885009766,-64.58399963378906 C37.737998962402344,-64.58399963378906 41.14099884033203,-64.35700225830078 44.334999084472656,-63.62799835205078 C44.334999084472656,-63.62799835205078 44.334999084472656,-25.763999938964844 44.334999084472656,-25.763999938964844 C38.952999114990234,-27.22599983215332 34.064998626708984,-28.214000701904297 28.43600082397461,-28.214000701904297 C7.952000141143799,-28.214000701904297 -2.809000015258789,-14.050000190734863 -2.809000015258789,1.8259999752044678 C-2.809000015258789,1.8259999752044678 -2.809000015258789,64.58399963378906 -2.809000015258789,64.58399963378906 C-2.809000015258789,64.58399963378906 -44.334999084472656,64.58399963378906 -44.334999084472656,64.58399963378906 C-44.334999084472656,64.58399963378906 -44.334999084472656,-62.137001037597656 -44.334999084472656,-62.137001037597656z"></path></g><g opacity="1" transform="matrix(1,0,0,1,639.6649780273438,148.50399780273438)"><path fill="rgb(255,255,255)" fill-opacity="1" d=" M-20.746999740600586,-39.87099838256836 C-20.746999740600586,-39.87099838256836 20.777000427246094,-39.87099838256836 20.777000427246094,-39.87099838256836 C20.777000427246094,-39.87099838256836 20.777000427246094,86.8499984741211 20.777000427246094,86.8499984741211 C20.777000427246094,86.8499984741211 -20.746999740600586,86.8499984741211 -20.746999740600586,86.8499984741211 C-20.746999740600586,86.8499984741211 -20.746999740600586,-39.87099838256836 -20.746999740600586,-39.87099838256836z M20.628999710083008,-86.8499984741211 C20.628999710083008,-86.8499984741211 -20.777999877929688,-86.8499984741211 -20.777999877929688,-86.8499984741211 C-20.777999877929688,-86.8499984741211 -20.777999877929688,-57.46900177001953 -20.777999877929688,-57.46900177001953 C-20.777999877929688,-57.46900177001953 20.628999710083008,-57.46900177001953 20.628999710083008,-57.46900177001953 C20.628999710083008,-57.46900177001953 20.628999710083008,-86.8499984741211 20.628999710083008,-86.8499984741211z"></path></g><g opacity="1" transform="matrix(1,0,0,1,1212.0340576171875,220.5659942626953)"><path fill="rgb(255,255,255)" fill-opacity="1" d=" M20.70199966430664,14.697999954223633 C20.70199966430664,14.697999954223633 -20.70199966430664,14.697999954223633 -20.70199966430664,14.697999954223633 C-20.70199966430664,14.697999954223633 -20.70199966430664,-14.697999954223633 -20.70199966430664,-14.697999954223633 C-20.70199966430664,-14.697999954223633 20.70199966430664,-14.697999954223633 20.70199966430664,-14.697999954223633 C20.70199966430664,-14.697999954223633 20.70199966430664,14.697999954223633 20.70199966430664,14.697999954223633z"></path></g><g opacity="1" transform="matrix(1,0,0,1,128.25900268554688,171.9770050048828)"><path fill="rgb(255,255,255)" fill-opacity="1" d=" M-26.750999450683594,10.152000427246094 C-26.023000717163086,27.479999542236328 -15.991000175476074,38.970001220703125 1.5809999704360962,38.970001220703125 C11.609999656677246,38.970001220703125 21.368000030517578,34.2869987487793 25.26099967956543,25.04400062561035 C25.26099967956543,25.04400062561035 64.0770034790039,25.04400062561035 64.0770034790039,25.04400062561035 C56.53900146484375,54.349998474121094 29.424999237060547,67.02300262451172 1.0950000286102295,67.02300262451172 C-40.15800094604492,67.02300262451172 -68.24299621582031,42.130001068115234 -68.24299621582031,-0.3619999885559082 C-68.24299621582031,-39.19200134277344 -37.2400016784668,-67.02300262451172 0.12099999934434891,-67.02300262451172 C45.5369987487793,-67.02300262451172 68.24299621582031,-32.85499954223633 66.2959976196289,10.152000427246094 C66.2959976196289,10.152000427246094 -26.750999450683594,10.152000427246094 -26.750999450683594,10.152000427246094z M24.773000717163086,-13.0649995803833 C24.04400062561035,-27.231000900268555 14.043999671936035,-38.9370002746582 0.12099999934434891,-38.9370002746582 C-14.532999992370605,-38.9370002746582 -24.290000915527344,-28.43400001525879 -26.750999450683594,-13.0649995803833 C-26.750999450683594,-13.0649995803833 24.773000717163086,-13.0649995803833 24.773000717163086,-13.0649995803833z"></path></g><g opacity="1" transform="matrix(1,0,0,1,266.29400634765625,171.9770050048828)"><path fill="rgb(255,255,255)" fill-opacity="1" d=" M25.261999130249023,63.37699890136719 C23.801000595092773,59.45600128173828 23.31599998474121,55.53900146484375 22.829999923706055,51.39899826049805 C12.069000244140625,62.64699935913086 -3.7990000247955322,67.02300262451172 -18.906999588012695,67.02300262451172 C-43.10499954223633,67.02300262451172 -62.13399887084961,54.80500030517578 -62.13399887084961,28.69300079345703 C-62.13399887084961,-12.579999923706055 -17.236000061035156,-9.369000434875488 11.612000465393066,-15.256999969482422 C18.665000915527344,-16.71299934387207 22.586000442504883,-19.15999984741211 22.586000442504883,-26.972000122070312 C22.586000442504883,-36.48699951171875 11.095999717712402,-40.165000915527344 2.553999900817871,-40.165000915527344 C-8.906000137329102,-40.165000915527344 -16.231000900268555,-35.042999267578125 -18.209999084472656,-24.298999786376953 C-18.209999084472656,-24.298999786376953 -57.027000427246094,-24.298999786376953 -57.027000427246094,-24.298999786376953 C-56.29899978637695,-40.9119987487793 -48.48500061035156,-51.65700149536133 -37.237998962402344,-58.2239990234375 C-25.990999221801758,-64.57599639892578 -11.369000434875488,-67.02300262451172 3.0409998893737793,-67.02300262451172 C33.104000091552734,-67.02300262451172 62.132999420166016,-60.441001892089844 62.132999420166016,-24.541000366210938 C62.132999420166016,-24.541000366210938 62.132999420166016,63.37699890136719 62.132999420166016,63.37699890136719 C62.132999420166016,63.37699890136719 25.261999130249023,63.37699890136719 25.261999130249023,63.37699890136719z M-3.2839999198913574,41.39899826049805 C16.47599983215332,41.39899826049805 23.07200050354004,30.152000427246094 22.100000381469727,4.033999919891357 C16.233999252319336,7.695000171661377 5.501999855041504,8.425000190734863 -3.5280001163482666,10.878000259399414 C-12.829000473022461,13.067999839782715 -20.639999389648438,16.9950008392334 -20.639999389648438,26.98900032043457 C-20.639999389648438,37.23400115966797 -12.583999633789062,41.39899826049805 -3.2839999198913574,41.39899826049805z"></path></g><g opacity="1" transform="matrix(1,0,0,1,394.6709899902344,170.77000427246094)"><path fill="rgb(255,255,255)" fill-opacity="1" d=" M-44.31999969482422,-62.137001037597656 C-44.31999969482422,-62.137001037597656 -4.01200008392334,-62.137001037597656 -4.01200008392334,-62.137001037597656 C-4.01200008392334,-62.137001037597656 -4.01200008392334,-39.94599914550781 -4.01200008392334,-39.94599914550781 C-4.01200008392334,-39.94599914550781 -3.556999921798706,-39.94599914550781 -3.556999921798706,-39.94599914550781 C2.555000066757202,-56.027000427246094 16.72100067138672,-64.58399963378906 34.53499984741211,-64.58399963378906 C37.724998474121094,-64.58399963378906 41.13100051879883,-64.35700225830078 44.31999969482422,-63.62799835205078 C44.31999969482422,-63.62799835205078 44.31999969482422,-25.763999938964844 44.31999969482422,-25.763999938964844 C38.94300079345703,-27.22599983215332 34.04899978637695,-28.214000701904297 28.45400047302246,-28.214000701904297 C7.934000015258789,-28.214000701904297 -2.825000047683716,-14.050000190734863 -2.825000047683716,1.8259999752044678 C-2.825000047683716,1.8259999752044678 -2.825000047683716,64.58399963378906 -2.825000047683716,64.58399963378906 C-2.825000047683716,64.58399963378906 -44.31999969482422,64.58399963378906 -44.31999969482422,64.58399963378906 C-44.31999969482422,64.58399963378906 -44.31999969482422,-62.137001037597656 -44.31999969482422,-62.137001037597656z"></path></g></g><g transform="matrix(0.1528100073337555,0,0,0.1528100073337555,24.937997817993164,4.437997817993164)" opacity="1" style="display: block;"><g opacity="1" transform="matrix(1,0,0,1,170.36300659179688,200.3470001220703)"><path fill="rgb(255,255,255)" fill-opacity="1" d=" M-162.73300170898438,-198.3470001220703 C-162.73300170898438,-198.3470001220703 19.42300033569336,-198.3470001220703 19.42300033569336,-198.3470001220703 C93.28900146484375,-198.3470001220703 162.73300170898438,-164.4550018310547 162.73300170898438,-70.53600311279297 C162.73300170898438,27.784000396728516 106.63899993896484,66.13300323486328 19.42300033569336,66.13300323486328 C19.42300033569336,66.13300323486328 -59.400001525878906,66.13300323486328 -59.400001525878906,66.13300323486328 C-59.400001525878906,66.13300323486328 -59.400001525878906,198.3470001220703 -59.400001525878906,198.3470001220703 C-59.400001525878906,198.3470001220703 -162.73300170898438,198.3470001220703 -162.73300170898438,198.3470001220703 C-162.73300170898438,198.3470001220703 -162.73300170898438,-198.3470001220703 -162.73300170898438,-198.3470001220703z M-59.400001525878906,-13.928000450134277 C-59.400001525878906,-13.928000450134277 3.8589999675750732,-13.928000450134277 3.8589999675750732,-13.928000450134277 C36.09199905395508,-13.928000450134277 59.402000427246094,-27.240999221801758 59.402000427246094,-63.37900161743164 C59.402000427246094,-100.59100341796875 35.5359992980957,-115.52799987792969 3.8589999675750732,-115.52799987792969 C3.8589999675750732,-115.52799987792969 -59.400001525878906,-115.52799987792969 -59.400001525878906,-115.52799987792969 C-59.400001525878906,-115.52799987792969 -59.400001525878906,-13.928000450134277 -59.400001525878906,-13.928000450134277z"></path></g></g><g transform="matrix(0.04125000163912773,0,0,0.04125000163912773,462.125,51.125)" opacity="1" style="display: block;"><g opacity="1" transform="matrix(1,0,0,1,200.24600219726562,200.05099487304688)"><path fill="rgb(255,255,255)" fill-opacity="1" d=" M173.18299865722656,122.9489974975586 C173.18299865722656,122.9489974975586 -173.18299865722656,122.9489974975586 -173.18299865722656,122.9489974975586 C-173.18299865722656,122.9489974975586 -173.18299865722656,-122.9489974975586 -173.18299865722656,-122.9489974975586 C-173.18299865722656,-122.9489974975586 173.18299865722656,-122.9489974975586 173.18299865722656,-122.9489974975586 C173.18299865722656,-122.9489974975586 173.18299865722656,122.9489974975586 173.18299865722656,122.9489974975586z"></path></g></g></g></svg>